<svg width="35" height="38" viewBox="0 0 35 38" fill="none" xmlns="http://www.w3.org/2000/svg">
<path d="M27.7083 17.86C27.0315 17.86 26.3823 17.5798 25.9037 17.0809C25.4251 16.5821 25.1562 15.9055 25.1562 15.2C25.1562 14.4945 25.4251 13.8179 25.9037 13.3191C26.3823 12.8202 27.0315 12.54 27.7083 12.54C28.3852 12.54 29.0343 12.8202 29.5129 13.3191C29.9915 13.8179 30.2604 14.4945 30.2604 15.2C30.2604 15.9055 29.9915 16.5821 29.5129 17.0809C29.0343 17.5798 28.3852 17.86 27.7083 17.86ZM17.5 17.86C16.8231 17.86 16.174 17.5798 15.6954 17.0809C15.2168 16.5821 14.9479 15.9055 14.9479 15.2C14.9479 14.4945 15.2168 13.8179 15.6954 13.3191C16.174 12.8202 16.8231 12.54 17.5 12.54C18.1769 12.54 18.826 12.8202 19.3046 13.3191C19.7832 13.8179 20.0521 14.4945 20.0521 15.2C20.0521 15.9055 19.7832 16.5821 19.3046 17.0809C18.826 17.5798 18.1769 17.86 17.5 17.86ZM7.29167 17.86C6.61481 17.86 5.96568 17.5798 5.48707 17.0809C5.00846 16.5821 4.73958 15.9055 4.73958 15.2C4.73958 14.4945 5.00846 13.8179 5.48707 13.3191C5.96568 12.8202 6.61481 12.54 7.29167 12.54C7.96852 12.54 8.61765 12.8202 9.09626 13.3191C9.57487 13.8179 9.84375 14.4945 9.84375 15.2C9.84375 15.9055 9.57487 16.5821 9.09626 17.0809C8.61765 17.5798 7.96852 17.86 7.29167 17.86ZM0 0V30.4H8.75V38L18.9583 30.4H35V0H0Z" fill="black"/>
</svg>
