<svg width="44" height="47" viewBox="0 0 44 47" fill="none" xmlns="http://www.w3.org/2000/svg">
<path d="M28.7692 40.2857C28.7692 42.0664 28.056 43.7742 26.7866 45.0334C25.5171 46.2926 23.7953 47 22 47C20.2047 47 18.4829 46.2926 17.2134 45.0334C15.944 43.7742 15.2308 42.0664 15.2308 40.2857H28.7692ZM38.9231 36.9285H2.03077C1.49218 36.9285 0.975642 36.7163 0.594799 36.3385C0.213956 35.9608 0 35.4484 0 34.9142C0 34.3799 0.213956 33.8676 0.594799 33.4898C0.975642 33.1121 1.49218 32.8999 2.03077 32.8999H5.07692V20.1426C5.07692 12.0183 10.8985 5.23677 18.6323 3.69247C18.5851 3.22567 18.637 2.75423 18.7847 2.30855C18.9325 1.86288 19.1727 1.45287 19.49 1.10496C19.8074 0.757047 20.1947 0.478966 20.627 0.288648C21.0593 0.0983298 21.527 0 22 0C22.473 0 22.9407 0.0983298 23.373 0.288648C23.8053 0.478966 24.1926 0.757047 24.51 1.10496C24.8273 1.45287 25.0675 1.86288 25.2153 2.30855C25.363 2.75423 25.4149 3.22567 25.3677 3.69247C29.1927 4.46417 32.6314 6.52317 35.1016 9.5209C37.5718 12.5186 38.9218 16.2709 38.9231 20.1426V32.8999H41.9692C42.5078 32.8999 43.0244 33.1121 43.4052 33.4898C43.786 33.8676 44 34.3799 44 34.9142C44 35.4484 43.786 35.9608 43.4052 36.3385C43.0244 36.7163 42.5078 36.9285 41.9692 36.9285H38.9231Z" fill="black"/>
</svg>
