<svg width="46" height="35" viewBox="0 0 46 35" fill="none" xmlns="http://www.w3.org/2000/svg">
<path d="M24.6446 35V25H31.2165L23.0016 15L14.7868 25H21.3587V35H13.1438V34.9167C12.8678 34.9333 12.6049 35 12.3223 35C9.05423 35 5.92 33.683 3.60912 31.3388C1.29824 28.9946 0 25.8152 0 22.5C0 16.0867 4.78106 10.86 10.9159 10.1433C11.4538 7.29098 12.9547 4.7179 15.1604 2.86666C17.3661 1.01543 20.1389 0.00176005 23.0016 0C25.8648 0.00162555 28.638 1.01518 30.8443 2.86637C33.0506 4.71756 34.5521 7.2907 35.0906 10.1433C41.2255 10.86 46 16.0867 46 22.5C46 25.8152 44.7018 28.9946 42.3909 31.3388C40.08 33.683 36.9458 35 33.6777 35C33.4017 35 33.1355 34.9333 32.8562 34.9167V35H24.6446Z" fill="black"/>
</svg>
