<svg width="45" height="43" viewBox="0 0 45 43" fill="none" xmlns="http://www.w3.org/2000/svg">
<path d="M35.1771 9.40477C37.2216 11.4658 38.7117 13.9939 39.5132 16.7613H45V26.2324H39.5132C38.7127 29.002 37.2225 31.5324 35.1771 33.5952L37.9254 38.2661L29.5746 43L26.8329 38.3292C23.9899 39.0332 21.0133 39.0332 18.1704 38.3292L15.4254 43L7.07464 38.2661L9.82286 33.5952C7.77745 31.5324 6.28728 29.002 5.48679 26.2324H0V16.7645H5.48679C6.28728 13.9948 7.77745 11.4645 9.82286 9.40162L7.07143 4.73394L15.4189 0H15.4286L18.1736 4.66451C21.0166 3.96048 23.9931 3.96048 26.8361 4.66451L29.5714 0H29.5779L37.9286 4.73394L35.1804 9.40477H35.1771ZM32.1429 21.4984C32.1429 18.9874 31.1269 16.5792 29.3185 14.8036C27.5101 13.028 25.0574 12.0305 22.5 12.0305C19.9426 12.0305 17.4899 13.028 15.6815 14.8036C13.8731 16.5792 12.8571 18.9874 12.8571 21.4984C12.8571 24.0095 13.8731 26.4177 15.6815 28.1932C17.4899 29.9688 19.9426 30.9663 22.5 30.9663C25.0574 30.9663 27.5101 29.9688 29.3185 28.1932C31.1269 26.4177 32.1429 24.0095 32.1429 21.4984Z" fill="black"/>
</svg>
