<svg width="20" height="22" viewBox="0 0 20 22" fill="none" xmlns="http://www.w3.org/2000/svg">
<path d="M4.16667 5.92308C4.16667 7.49397 4.78125 9.00053 5.87521 10.1113C6.96917 11.2221 8.4529 11.8462 10 11.8462C11.5471 11.8462 13.0308 11.2221 14.1248 10.1113C15.2188 9.00053 15.8333 7.49397 15.8333 5.92308C15.8333 4.35218 15.2188 2.84562 14.1248 1.73483C13.0308 0.624037 11.5471 0 10 0C8.4529 0 6.96917 0.624037 5.87521 1.73483C4.78125 2.84562 4.16667 4.35218 4.16667 5.92308ZM18.3333 22H0.833333C0.61232 22 0.400358 21.9109 0.244078 21.7522C0.0877975 21.5935 0 21.3783 0 21.1538V18.6154C0 17.4933 0.438987 16.4172 1.22039 15.6238C2.00179 14.8304 3.0616 14.3846 4.16667 14.3846H15.8333C16.9384 14.3846 17.9982 14.8304 18.7796 15.6238C19.561 16.4172 20 17.4933 20 18.6154V21.1538C20 21.3783 19.9122 21.5935 19.7559 21.7522C19.5996 21.9109 19.3877 22 19.1667 22H18.3333Z" fill="black"/>
</svg>
